<?xml version="1.0" encoding="UTF-8" standalone="no"?>
<!DOCTYPE svg PUBLIC "-//W3C//DTD SVG 1.1//EN"
 "http://www.w3.org/Graphics/SVG/1.1/DTD/svg11.dtd">
<!-- Generated by graphviz version 2.40.1 (20161225.0304)
 -->
<!-- Title: G Pages: 1 -->
<svg width="365pt" height="1215pt"
 viewBox="0.00 0.00 365.01 1215.19" xmlns="http://www.w3.org/2000/svg" xmlns:xlink="http://www.w3.org/1999/xlink">
<g id="graph0" class="graph" transform="scale(1 1) rotate(0) translate(4 1211.1881)">
<title>G</title>
<polygon fill="#ffffff" stroke="transparent" points="-4,4 -4,-1211.1881 361.0055,-1211.1881 361.0055,4 -4,4"/>
<!-- A0 -->
<g id="node1" class="node">
<title>A0</title>
<polygon fill="none" stroke="#000000" points="129.5,-1175.1881 129.5,-1207.1881 199.5,-1207.1881 199.5,-1175.1881 129.5,-1175.1881"/>
<text text-anchor="start" x="150.887" y="-1188.1881" font-family="Helvetica,sans-Serif" font-size="10.00" fill="#000000">Game</text>
<polygon fill="none" stroke="#000000" points="129.5,-1143.1881 129.5,-1175.1881 199.5,-1175.1881 199.5,-1143.1881 129.5,-1143.1881"/>
<text text-anchor="start" x="139.22" y="-1156.1881" font-family="Helvetica,sans-Serif" font-size="10.00" fill="#000000">gameloop()</text>
</g>
<!-- A1 -->
<g id="node2" class="node">
<title>A1</title>
<polygon fill="none" stroke="#000000" points="101.5,-1061.1881 101.5,-1093.1881 167.5,-1093.1881 167.5,-1061.1881 101.5,-1061.1881"/>
<text text-anchor="start" x="124.7765" y="-1074.1881" font-family="Helvetica,sans-Serif" font-size="10.00" fill="#000000">Map</text>
<polygon fill="none" stroke="#000000" points="101.5,-1005.1881 101.5,-1061.1881 167.5,-1061.1881 167.5,-1005.1881 101.5,-1005.1881"/>
<text text-anchor="start" x="120.883" y="-1042.1881" font-family="Helvetica,sans-Serif" font-size="10.00" fill="#000000">height</text>
<text text-anchor="start" x="122.8325" y="-1030.1881" font-family="Helvetica,sans-Serif" font-size="10.00" fill="#000000">width</text>
<text text-anchor="start" x="123.6615" y="-1018.1881" font-family="Helvetica,sans-Serif" font-size="10.00" fill="#000000">seed</text>
<polygon fill="none" stroke="#000000" points="101.5,-973.1881 101.5,-1005.1881 167.5,-1005.1881 167.5,-973.1881 101.5,-973.1881"/>
<text text-anchor="start" x="111.44" y="-986.1881" font-family="Helvetica,sans-Serif" font-size="10.00" fill="#000000">generate()</text>
<polygon fill="none" stroke="#000000" points="101.5,-941.1881 101.5,-973.1881 167.5,-973.1881 167.5,-941.1881 101.5,-941.1881"/>
<text text-anchor="start" x="115.884" y="-954.1881" font-family="Helvetica,sans-Serif" font-size="10.00" fill="#000000">update()</text>
</g>
<!-- A0&#45;&gt;A1 -->
<g id="edge1" class="edge">
<title>A0&#45;&gt;A1</title>
<path fill="none" stroke="#000000" d="M156.053,-1130.7003C153.8324,-1119.0054 151.3734,-1106.0545 148.9343,-1093.2089"/>
<polygon fill="#000000" stroke="#000000" points="156.1181,-1131.0438 161.1672,-1136.1923 158.3567,-1142.8332 153.3076,-1137.6847 156.1181,-1131.0438"/>
<text text-anchor="middle" x="160.6196" y="-1106.4401" font-family="Helvetica,sans-Serif" font-size="10.00" fill="#000000">1</text>
<text text-anchor="middle" x="146.6714" y="-1123.6019" font-family="Helvetica,sans-Serif" font-size="10.00" fill="#000000">1</text>
</g>
<!-- A5 -->
<g id="node6" class="node">
<title>A5</title>
<polygon fill="none" stroke="#000000" points="247.004,-761.1881 183.996,-761.1881 183.996,-725.1881 247.004,-725.1881 247.004,-761.1881"/>
<text text-anchor="middle" x="215.5" y="-740.1881" font-family="Helvetica,sans-Serif" font-size="10.00" fill="#000000">Country</text>
</g>
<!-- A0&#45;&gt;A5 -->
<g id="edge5" class="edge">
<title>A0&#45;&gt;A5</title>
<path fill="none" stroke="#000000" d="M171.2958,-1130.691C173.0739,-1118.5407 174.9307,-1105.3676 176.5,-1093.1881 192.8293,-966.4532 208.4902,-813.3709 213.6902,-761.4328"/>
<polygon fill="#000000" stroke="#000000" points="171.246,-1131.0278 174.3231,-1137.5494 169.4866,-1142.8981 166.4095,-1136.3765 171.246,-1131.0278"/>
<text text-anchor="middle" x="220.2816" y="-777.3155" font-family="Helvetica,sans-Serif" font-size="10.00" fill="#000000">1</text>
<text text-anchor="middle" x="163.783" y="-1120.7286" font-family="Helvetica,sans-Serif" font-size="10.00" fill="#000000">*</text>
</g>
<!-- A2 -->
<g id="node3" class="node">
<title>A2</title>
<polygon fill="none" stroke="#000000" points="68.5,-859.1881 68.5,-891.1881 164.5,-891.1881 164.5,-859.1881 68.5,-859.1881"/>
<text text-anchor="start" x="107.892" y="-872.1881" font-family="Helvetica,sans-Serif" font-size="10.00" fill="#000000">Cell</text>
<polygon fill="none" stroke="#000000" points="68.5,-767.1881 68.5,-859.1881 164.5,-859.1881 164.5,-767.1881 68.5,-767.1881"/>
<text text-anchor="start" x="102.883" y="-840.1881" font-family="Helvetica,sans-Serif" font-size="10.00" fill="#000000">height</text>
<text text-anchor="start" x="78.991" y="-828.1881" font-family="Helvetica,sans-Serif" font-size="10.00" fill="#000000">distanceToCoast</text>
<text text-anchor="start" x="86.4905" y="-816.1881" font-family="Helvetica,sans-Serif" font-size="10.00" fill="#000000">continentSize</text>
<text text-anchor="start" x="102.8875" y="-804.1881" font-family="Helvetica,sans-Serif" font-size="10.00" fill="#000000">biome</text>
<text text-anchor="start" x="85.9395" y="-792.1881" font-family="Helvetica,sans-Serif" font-size="10.00" fill="#000000">resourceType</text>
<text text-anchor="start" x="78.4365" y="-780.1881" font-family="Helvetica,sans-Serif" font-size="10.00" fill="#000000">resourceQuantity</text>
<polygon fill="none" stroke="#000000" points="68.5,-651.1881 68.5,-767.1881 164.5,-767.1881 164.5,-651.1881 68.5,-651.1881"/>
<text text-anchor="start" x="89.5505" y="-748.1881" font-family="Helvetica,sans-Serif" font-size="10.00" fill="#000000">temperature</text>
<text text-anchor="start" x="99.278" y="-736.1881" font-family="Helvetica,sans-Serif" font-size="10.00" fill="#000000">humidiy</text>
<text text-anchor="start" x="95.938" y="-724.1881" font-family="Helvetica,sans-Serif" font-size="10.00" fill="#000000">coverage</text>
<text text-anchor="start" x="89.551" y="-712.1881" font-family="Helvetica,sans-Serif" font-size="10.00" fill="#000000">precipitation</text>
<text text-anchor="start" x="106.222" y="-700.1881" font-family="Helvetica,sans-Serif" font-size="10.00" fill="#000000">wind</text>
<text text-anchor="start" x="97.8845" y="-688.1881" font-family="Helvetica,sans-Serif" font-size="10.00" fill="#000000">pollution</text>
<text text-anchor="start" x="97.3295" y="-676.1881" font-family="Helvetica,sans-Serif" font-size="10.00" fill="#000000">radiation</text>
<text text-anchor="start" x="102.059" y="-664.1881" font-family="Helvetica,sans-Serif" font-size="10.00" fill="#000000">fertility</text>
<polygon fill="none" stroke="#000000" points="68.5,-595.1881 68.5,-651.1881 164.5,-651.1881 164.5,-595.1881 68.5,-595.1881"/>
<text text-anchor="start" x="102.8875" y="-632.1881" font-family="Helvetica,sans-Serif" font-size="10.00" fill="#000000">owner</text>
<text text-anchor="start" x="93.4395" y="-620.1881" font-family="Helvetica,sans-Serif" font-size="10.00" fill="#000000">settlement</text>
<text text-anchor="start" x="93.435" y="-608.1881" font-family="Helvetica,sans-Serif" font-size="10.00" fill="#000000">population</text>
</g>
<!-- A1&#45;&gt;A2 -->
<g id="edge2" class="edge">
<title>A1&#45;&gt;A2</title>
<path fill="none" stroke="#000000" d="M128.6775,-928.5566C127.8875,-916.5307 127.06,-903.9344 126.2241,-891.2104"/>
<polygon fill="#000000" stroke="#000000" points="128.6993,-928.8896 133.084,-934.6145 129.486,-940.8638 125.1012,-935.139 128.6993,-928.8896"/>
<text text-anchor="middle" x="135.8465" y="-905.7435" font-family="Helvetica,sans-Serif" font-size="10.00" fill="#000000">1</text>
<text text-anchor="middle" x="119.8636" y="-920.3307" font-family="Helvetica,sans-Serif" font-size="10.00" fill="#000000">*</text>
</g>
<!-- A3 -->
<g id="node4" class="node">
<title>A3</title>
<polygon fill="none" stroke="#000000" points="226.8941,-415.1881 170.1059,-415.1881 170.1059,-379.1881 226.8941,-379.1881 226.8941,-415.1881"/>
<text text-anchor="middle" x="198.5" y="-394.1881" font-family="Helvetica,sans-Serif" font-size="10.00" fill="#000000">Nation</text>
</g>
<!-- A2&#45;&gt;A3 -->
<g id="edge3" class="edge">
<title>A2&#45;&gt;A3</title>
<path fill="none" stroke="#000000" d="M154.4644,-582.9969C168.5103,-523.7298 183.034,-462.4469 191.393,-427.1761"/>
<polygon fill="none" stroke="#000000" points="154.3996,-583.2707 156.9081,-590.0314 151.6322,-594.9472 149.1237,-588.1865 154.3996,-583.2707"/>
<polygon fill="none" stroke="#000000" points="191.4141,-427.087 188.9055,-420.3263 194.1814,-415.4104 196.6899,-422.1712 191.4141,-427.087"/>
<text text-anchor="middle" x="198.226" y="-431.9972" font-family="Helvetica,sans-Serif" font-size="10.00" fill="#000000">1</text>
<text text-anchor="middle" x="147.5877" y="-572.3605" font-family="Helvetica,sans-Serif" font-size="10.00" fill="#000000">*</text>
</g>
<!-- A4 -->
<g id="node5" class="node">
<title>A4</title>
<polygon fill="none" stroke="#000000" points="151.2903,-545.1881 75.7097,-545.1881 75.7097,-509.1881 151.2903,-509.1881 151.2903,-545.1881"/>
<text text-anchor="middle" x="113.5" y="-524.1881" font-family="Helvetica,sans-Serif" font-size="10.00" fill="#000000">Settlement</text>
</g>
<!-- A2&#45;&gt;A4 -->
<g id="edge16" class="edge">
<title>A2&#45;&gt;A4</title>
<path fill="none" stroke="#000000" d="M114.2719,-582.7636C114.0669,-568.005 113.8859,-554.9709 113.7507,-545.2413"/>
<polygon fill="#000000" stroke="#000000" points="114.2742,-582.9404 118.3572,-588.8842 114.441,-594.9392 110.358,-588.9954 114.2742,-582.9404"/>
<text text-anchor="middle" x="122.454" y="-560.2483" font-family="Helvetica,sans-Serif" font-size="10.00" fill="#000000">1</text>
<text text-anchor="middle" x="105.7377" y="-573.9322" font-family="Helvetica,sans-Serif" font-size="10.00" fill="#000000">0..1</text>
</g>
<!-- A10 -->
<g id="node11" class="node">
<title>A10</title>
<polygon fill="none" stroke="#000000" points=".5,-427.1881 .5,-459.1881 95.5,-459.1881 95.5,-427.1881 .5,-427.1881"/>
<text text-anchor="start" x="10.4875" y="-440.1881" font-family="Helvetica,sans-Serif" font-size="10.00" fill="#000000">PopulationGroup</text>
<polygon fill="none" stroke="#000000" points=".5,-335.1881 .5,-427.1881 95.5,-427.1881 95.5,-335.1881 .5,-335.1881"/>
<text text-anchor="start" x="39.111" y="-408.1881" font-family="Helvetica,sans-Serif" font-size="10.00" fill="#000000">size</text>
<text text-anchor="start" x="14.662" y="-396.1881" font-family="Helvetica,sans-Serif" font-size="10.00" fill="#000000">ageDistribution</text>
<text text-anchor="start" x="36.611" y="-384.1881" font-family="Helvetica,sans-Serif" font-size="10.00" fill="#000000">class</text>
<text text-anchor="start" x="34.667" y="-372.1881" font-family="Helvetica,sans-Serif" font-size="10.00" fill="#000000">salary</text>
<text text-anchor="start" x="27.993" y="-360.1881" font-family="Helvetica,sans-Serif" font-size="10.00" fill="#000000">hapiness</text>
<text text-anchor="start" x="43.8315" y="-348.1881" font-family="Helvetica,sans-Serif" font-size="10.00" fill="#000000">...</text>
</g>
<!-- A2&#45;&gt;A10 -->
<g id="edge15" class="edge">
<title>A2&#45;&gt;A10</title>
<path fill="none" stroke="#000000" d="M74.3643,-583.1859C71.5186,-570.3702 68.853,-557.589 66.5,-545.1881 61.1878,-517.1918 56.9328,-485.9294 53.8072,-459.3766"/>
<polygon fill="#000000" stroke="#000000" points="74.3788,-583.2505 79.6032,-588.2209 77.0245,-594.9552 71.8001,-589.9847 74.3788,-583.2505"/>
<text text-anchor="middle" x="64.7839" y="-576.1385" font-family="Helvetica,sans-Serif" font-size="10.00" fill="#000000">0..1</text>
</g>
<!-- A6 -->
<g id="node7" class="node">
<title>A6</title>
<polygon fill="none" stroke="#000000" points="357.011,-285.1881 273.989,-285.1881 273.989,-249.1881 357.011,-249.1881 357.011,-285.1881"/>
<text text-anchor="middle" x="315.5" y="-264.1881" font-family="Helvetica,sans-Serif" font-size="10.00" fill="#000000">Government</text>
</g>
<!-- A3&#45;&gt;A6 -->
<g id="edge7" class="edge">
<title>A3&#45;&gt;A6</title>
<path fill="none" stroke="#000000" d="M222.9423,-370.0299C245.7561,-344.6813 279.173,-307.5514 298.9926,-285.5296"/>
<polygon fill="#000000" stroke="#000000" points="222.796,-370.1926 221.7553,-377.3282 214.7683,-379.1122 215.809,-371.9765 222.796,-370.1926"/>
<text text-anchor="middle" x="293.1495" y="-301.657" font-family="Helvetica,sans-Serif" font-size="10.00" fill="#000000">1</text>
<text text-anchor="middle" x="220.6115" y="-356.9848" font-family="Helvetica,sans-Serif" font-size="10.00" fill="#000000">1</text>
</g>
<!-- A8 -->
<g id="node9" class="node">
<title>A8</title>
<polygon fill="none" stroke="#000000" points="255.8941,-285.1881 189.1059,-285.1881 189.1059,-249.1881 255.8941,-249.1881 255.8941,-285.1881"/>
<text text-anchor="middle" x="222.5" y="-264.1881" font-family="Helvetica,sans-Serif" font-size="10.00" fill="#000000">Province</text>
</g>
<!-- A3&#45;&gt;A8 -->
<g id="edge9" class="edge">
<title>A3&#45;&gt;A8</title>
<path fill="none" stroke="#000000" d="M204.0165,-367.3072C208.6733,-342.083 215.1916,-306.7753 219.1139,-285.5296"/>
<polygon fill="none" stroke="#000000" points="204.0157,-367.3116 206.86,-373.9381 201.8371,-379.1122 198.9929,-372.4856 204.0157,-367.3116"/>
<text text-anchor="middle" x="196.8159" y="-356.7527" font-family="Helvetica,sans-Serif" font-size="10.00" fill="#000000">*</text>
</g>
<!-- A9 -->
<g id="node10" class="node">
<title>A9</title>
<polygon fill="none" stroke="#000000" points="191.7234,-41.1881 131.2766,-41.1881 131.2766,-5.1881 191.7234,-5.1881 191.7234,-41.1881"/>
<text text-anchor="middle" x="161.5" y="-20.1881" font-family="Helvetica,sans-Serif" font-size="10.00" fill="#000000">Culture</text>
</g>
<!-- A3&#45;&gt;A9 -->
<g id="edge11" class="edge">
<title>A3&#45;&gt;A9</title>
<path fill="none" stroke="#000000" d="M192.9033,-366.9162C188.9257,-344.4362 183.7357,-312.9874 180.5,-285.1881 169.8757,-193.9091 164.2051,-84.0034 162.2722,-41.3446"/>
<polygon fill="none" stroke="#000000" points="192.9561,-367.21 197.9554,-372.4068 195.0812,-379.0204 190.0818,-373.8236 192.9561,-367.21"/>
<text text-anchor="middle" x="183.5525" y="-359.6775" font-family="Helvetica,sans-Serif" font-size="10.00" fill="#000000">1</text>
</g>
<!-- A4&#45;&gt;A3 -->
<g id="edge4" class="edge">
<title>A4&#45;&gt;A3</title>
<path fill="none" stroke="#000000" d="M131.9184,-499.0188C146.0789,-477.3615 165.5632,-447.562 179.7949,-425.7959"/>
<polygon fill="none" stroke="#000000" points="131.8859,-499.0685 131.9503,-506.2793 125.3189,-509.1122 125.2545,-501.9013 131.8859,-499.0685"/>
<polygon fill="none" stroke="#000000" points="179.9404,-425.5733 179.8761,-418.3624 186.5075,-415.5296 186.5718,-422.7404 179.9404,-425.5733"/>
<text text-anchor="middle" x="183.6623" y="-432.3262" font-family="Helvetica,sans-Serif" font-size="10.00" fill="#000000">*</text>
<text text-anchor="middle" x="128.164" y="-486.3156" font-family="Helvetica,sans-Serif" font-size="10.00" fill="#000000">1</text>
</g>
<!-- A7 -->
<g id="node8" class="node">
<title>A7</title>
<polygon fill="none" stroke="#000000" points="190.5,-167.1881 190.5,-199.1881 253.5,-199.1881 253.5,-167.1881 190.5,-167.1881"/>
<text text-anchor="start" x="200.054" y="-180.1881" font-family="Helvetica,sans-Serif" font-size="10.00" fill="#000000">Character</text>
<polygon fill="none" stroke="#000000" points="190.5,-123.1881 190.5,-167.1881 253.5,-167.1881 253.5,-123.1881 190.5,-123.1881"/>
<text text-anchor="start" x="209.497" y="-148.1881" font-family="Helvetica,sans-Serif" font-size="10.00" fill="#000000">name</text>
<text text-anchor="start" x="213.6615" y="-136.1881" font-family="Helvetica,sans-Serif" font-size="10.00" fill="#000000">age</text>
<polygon fill="none" stroke="#000000" points="190.5,-91.1881 190.5,-123.1881 253.5,-123.1881 253.5,-91.1881 190.5,-91.1881"/>
<text text-anchor="start" x="211.167" y="-104.1881" font-family="Helvetica,sans-Serif" font-size="10.00" fill="#000000">roles</text>
</g>
<!-- A4&#45;&gt;A7 -->
<g id="edge17" class="edge">
<title>A4&#45;&gt;A7</title>
<path fill="none" stroke="#000000" d="M119.284,-497.2761C129.5263,-445.937 152.4421,-337.9976 180.5,-249.1881 185.7036,-232.7174 192.2446,-215.1291 198.564,-199.1909"/>
<polygon fill="none" stroke="#000000" points="119.2813,-497.2899 122.0438,-503.9509 116.9576,-509.0628 114.1952,-502.4018 119.2813,-497.2899"/>
<text text-anchor="middle" x="112.1751" y="-486.643" font-family="Helvetica,sans-Serif" font-size="10.00" fill="#000000">* leaders</text>
</g>
<!-- A4&#45;&gt;A10 -->
<g id="edge18" class="edge">
<title>A4&#45;&gt;A10</title>
<path fill="none" stroke="#000000" d="M98.8864,-498.4037C93.0259,-486.8603 86.0291,-473.0787 79.1136,-459.4573"/>
<polygon fill="#000000" stroke="#000000" points="98.8906,-498.4121 105.1735,-501.9514 104.323,-509.1122 98.0401,-505.5729 98.8906,-498.4121"/>
<text text-anchor="middle" x="88.5807" y="-493.776" font-family="Helvetica,sans-Serif" font-size="10.00" fill="#000000">*</text>
</g>
<!-- A5&#45;&gt;A3 -->
<g id="edge6" class="edge">
<title>A5&#45;&gt;A3</title>
<path fill="none" stroke="#000000" d="M214.01,-712.8632C210.5727,-642.904 202.1711,-471.9052 199.4018,-415.5415"/>
<polygon fill="none" stroke="#000000" points="214.021,-713.0872 218.3106,-718.8837 214.6099,-725.0728 210.3203,-719.2763 214.021,-713.0872"/>
<text text-anchor="middle" x="205.2782" y="-704.3833" font-family="Helvetica,sans-Serif" font-size="10.00" fill="#000000">*</text>
</g>
<!-- A6&#45;&gt;A7 -->
<g id="edge8" class="edge">
<title>A6&#45;&gt;A7</title>
<path fill="none" stroke="#000000" d="M294.192,-239.533C282.0691,-223.7991 266.6541,-203.7924 253.1419,-186.2552"/>
<polygon fill="none" stroke="#000000" points="294.3059,-239.6809 301.1365,-241.9924 301.63,-249.1866 294.7994,-246.8751 294.3059,-239.6809"/>
<text text-anchor="middle" x="283.8714" y="-236.9869" font-family="Helvetica,sans-Serif" font-size="10.00" fill="#000000">* members</text>
</g>
<!-- A7&#45;&gt;A9 -->
<g id="edge13" class="edge">
<title>A7&#45;&gt;A9</title>
<path fill="none" stroke="#000000" d="M189.4714,-80.0634C182.4637,-65.8143 175.6043,-51.8667 170.432,-41.3498"/>
<polygon fill="none" stroke="#000000" points="189.5378,-80.1984 195.7752,-83.8172 194.8337,-90.9666 188.5964,-87.3478 189.5378,-80.1984"/>
<text text-anchor="middle" x="179.2496" y="-75.4313" font-family="Helvetica,sans-Serif" font-size="10.00" fill="#000000">1</text>
</g>
<!-- A8&#45;&gt;A7 -->
<g id="edge10" class="edge">
<title>A8&#45;&gt;A7</title>
<path fill="none" stroke="#000000" d="M222.2512,-236.8342C222.1578,-225.4374 222.0486,-212.1125 221.9428,-199.2096"/>
<polygon fill="none" stroke="#000000" points="222.254,-237.187 226.3031,-243.154 222.3524,-249.1866 218.3034,-243.2196 222.254,-237.187"/>
<text text-anchor="middle" x="213.7518" y="-228.1303" font-family="Helvetica,sans-Serif" font-size="10.00" fill="#000000">* leaders</text>
</g>
<!-- A9&#45;&gt;A9 -->
<g id="edge14" class="edge">
<title>A9&#45;&gt;A9</title>
<path fill="none" stroke="#000000" d="M188.4714,-45.8288C199.8879,-47.5283 209.6115,-39.9813 209.6115,-23.1881 209.6115,-1.0279 192.6797,5.0315 177.2691,-5.0098"/>
<polygon fill="none" stroke="#000000" points="188.4171,-45.8073 181.3628,-47.3028 177.2691,-41.3663 184.3234,-39.8708 188.4171,-45.8073"/>
<text text-anchor="middle" x="197.2363" y="-37.2221" font-family="Helvetica,sans-Serif" font-size="10.00" fill="#000000">* subcultures</text>
</g>
<!-- A10&#45;&gt;A9 -->
<g id="edge12" class="edge">
<title>A10&#45;&gt;A9</title>
<path fill="none" stroke="#000000" d="M69.9891,-323.408C97.0197,-234.7288 140.6553,-91.5734 155.9721,-41.3236"/>
<polygon fill="none" stroke="#000000" points="69.9516,-323.5312 72.0284,-330.4368 66.4528,-335.0098 64.376,-328.1042 69.9516,-323.5312"/>
<text text-anchor="middle" x="63.6527" y="-312.2067" font-family="Helvetica,sans-Serif" font-size="10.00" fill="#000000">1</text>
</g>
</g>
</svg>
