<?xml version="1.0" encoding="UTF-8" standalone="no"?>
<!DOCTYPE svg PUBLIC "-//W3C//DTD SVG 1.1//EN"
 "http://www.w3.org/Graphics/SVG/1.1/DTD/svg11.dtd">
<!-- Generated by graphviz version 2.40.1 (20161225.0304)
 -->
<!-- Title: G Pages: 1 -->
<svg width="778pt" height="740pt"
 viewBox="0.00 0.00 777.96 740.00" xmlns="http://www.w3.org/2000/svg" xmlns:xlink="http://www.w3.org/1999/xlink">
<g id="graph0" class="graph" transform="scale(1 1) rotate(0) translate(4 736)">
<title>G</title>
<polygon fill="#ffffff" stroke="transparent" points="-4,4 -4,-736 773.9615,-736 773.9615,4 -4,4"/>
<!-- A0 -->
<g id="node1" class="node">
<title>A0</title>
<polygon fill="none" stroke="#000000" points="195.5125,-732 141.5125,-732 141.5125,-696 195.5125,-696 195.5125,-732"/>
<text text-anchor="middle" x="168.5125" y="-711" font-family="Helvetica,sans-Serif" font-size="10.00" fill="#000000">Game</text>
</g>
<!-- A1 -->
<g id="node2" class="node">
<title>A1</title>
<polygon fill="none" stroke="#000000" points="96.5125,-614 96.5125,-646 162.5125,-646 162.5125,-614 96.5125,-614"/>
<text text-anchor="start" x="119.789" y="-627" font-family="Helvetica,sans-Serif" font-size="10.00" fill="#000000">Map</text>
<polygon fill="none" stroke="#000000" points="96.5125,-558 96.5125,-614 162.5125,-614 162.5125,-558 96.5125,-558"/>
<text text-anchor="start" x="115.8955" y="-595" font-family="Helvetica,sans-Serif" font-size="10.00" fill="#000000">height</text>
<text text-anchor="start" x="117.845" y="-583" font-family="Helvetica,sans-Serif" font-size="10.00" fill="#000000">width</text>
<text text-anchor="start" x="118.674" y="-571" font-family="Helvetica,sans-Serif" font-size="10.00" fill="#000000">seed</text>
<polygon fill="none" stroke="#000000" points="96.5125,-526 96.5125,-558 162.5125,-558 162.5125,-526 96.5125,-526"/>
<text text-anchor="start" x="106.4525" y="-539" font-family="Helvetica,sans-Serif" font-size="10.00" fill="#000000">generate()</text>
<polygon fill="none" stroke="#000000" points="96.5125,-494 96.5125,-526 162.5125,-526 162.5125,-494 96.5125,-494"/>
<text text-anchor="start" x="110.8965" y="-507" font-family="Helvetica,sans-Serif" font-size="10.00" fill="#000000">update()</text>
</g>
<!-- A0&#45;&gt;A1 -->
<g id="edge1" class="edge">
<title>A0&#45;&gt;A1</title>
<path fill="none" stroke="#000000" d="M160.419,-684.1161C157.3875,-672.9232 153.7889,-659.6361 150.1376,-646.1541"/>
<polygon fill="#000000" stroke="#000000" points="160.4361,-684.1796 165.8655,-688.9253 163.5731,-695.7623 158.1437,-691.0166 160.4361,-684.1796"/>
<text text-anchor="middle" x="163.0345" y="-658.4403" font-family="Helvetica,sans-Serif" font-size="10.00" fill="#000000">1</text>
<text text-anchor="middle" x="150.6762" y="-677.476" font-family="Helvetica,sans-Serif" font-size="10.00" fill="#000000">1</text>
</g>
<!-- A3 -->
<g id="node4" class="node">
<title>A3</title>
<polygon fill="none" stroke="#000000" points="238.5125,-588 184.5125,-588 184.5125,-552 238.5125,-552 238.5125,-588"/>
<text text-anchor="middle" x="211.5125" y="-567" font-family="Helvetica,sans-Serif" font-size="10.00" fill="#000000">Country</text>
</g>
<!-- A0&#45;&gt;A3 -->
<g id="edge3" class="edge">
<title>A0&#45;&gt;A3</title>
<path fill="none" stroke="#000000" d="M177.4927,-683.9269C186.1381,-654.9748 198.9287,-612.1412 206.1107,-588.0896"/>
<polygon fill="#000000" stroke="#000000" points="177.3921,-684.264 179.508,-691.1577 173.9585,-695.7623 171.8425,-688.8686 177.3921,-684.264"/>
<text text-anchor="middle" x="209.0233" y="-604.8764" font-family="Helvetica,sans-Serif" font-size="10.00" fill="#000000">1</text>
<text text-anchor="middle" x="171.0459" y="-672.9755" font-family="Helvetica,sans-Serif" font-size="10.00" fill="#000000">*</text>
</g>
<!-- A2 -->
<g id="node3" class="node">
<title>A2</title>
<polygon fill="none" stroke="#000000" points="74.5125,-412 74.5125,-444 170.5125,-444 170.5125,-412 74.5125,-412"/>
<text text-anchor="start" x="113.9045" y="-425" font-family="Helvetica,sans-Serif" font-size="10.00" fill="#000000">Cell</text>
<polygon fill="none" stroke="#000000" points="74.5125,-344 74.5125,-412 170.5125,-412 170.5125,-344 74.5125,-344"/>
<text text-anchor="start" x="108.8955" y="-393" font-family="Helvetica,sans-Serif" font-size="10.00" fill="#000000">height</text>
<text text-anchor="start" x="108.9" y="-381" font-family="Helvetica,sans-Serif" font-size="10.00" fill="#000000">biome</text>
<text text-anchor="start" x="91.952" y="-369" font-family="Helvetica,sans-Serif" font-size="10.00" fill="#000000">resourceType</text>
<text text-anchor="start" x="84.449" y="-357" font-family="Helvetica,sans-Serif" font-size="10.00" fill="#000000">resourceQuantity</text>
<polygon fill="none" stroke="#000000" points="74.5125,-228 74.5125,-344 170.5125,-344 170.5125,-228 74.5125,-228"/>
<text text-anchor="start" x="95.563" y="-325" font-family="Helvetica,sans-Serif" font-size="10.00" fill="#000000">temperature</text>
<text text-anchor="start" x="105.2905" y="-313" font-family="Helvetica,sans-Serif" font-size="10.00" fill="#000000">humidiy</text>
<text text-anchor="start" x="101.9505" y="-301" font-family="Helvetica,sans-Serif" font-size="10.00" fill="#000000">coverage</text>
<text text-anchor="start" x="95.5635" y="-289" font-family="Helvetica,sans-Serif" font-size="10.00" fill="#000000">precipitation</text>
<text text-anchor="start" x="112.2345" y="-277" font-family="Helvetica,sans-Serif" font-size="10.00" fill="#000000">wind</text>
<text text-anchor="start" x="103.897" y="-265" font-family="Helvetica,sans-Serif" font-size="10.00" fill="#000000">pollution</text>
<text text-anchor="start" x="103.342" y="-253" font-family="Helvetica,sans-Serif" font-size="10.00" fill="#000000">radiation</text>
<text text-anchor="start" x="108.0715" y="-241" font-family="Helvetica,sans-Serif" font-size="10.00" fill="#000000">fertility</text>
<polygon fill="none" stroke="#000000" points="74.5125,-172 74.5125,-228 170.5125,-228 170.5125,-172 74.5125,-172"/>
<text text-anchor="start" x="108.9" y="-209" font-family="Helvetica,sans-Serif" font-size="10.00" fill="#000000">owner</text>
<text text-anchor="start" x="99.452" y="-197" font-family="Helvetica,sans-Serif" font-size="10.00" fill="#000000">settlement</text>
<text text-anchor="start" x="99.4475" y="-185" font-family="Helvetica,sans-Serif" font-size="10.00" fill="#000000">population</text>
</g>
<!-- A1&#45;&gt;A2 -->
<g id="edge2" class="edge">
<title>A1&#45;&gt;A2</title>
<path fill="none" stroke="#000000" d="M127.1576,-481.8593C126.8313,-469.6474 126.4901,-456.8771 126.1472,-444.0421"/>
<polygon fill="#000000" stroke="#000000" points="127.1578,-481.8711 131.3167,-487.7621 127.4784,-493.8668 123.3195,-487.9758 127.1578,-481.8711"/>
<text text-anchor="middle" x="135.0807" y="-458.9361" font-family="Helvetica,sans-Serif" font-size="10.00" fill="#000000">1</text>
<text text-anchor="middle" x="118.5449" y="-472.9729" font-family="Helvetica,sans-Serif" font-size="10.00" fill="#000000">*</text>
</g>
<!-- A10 -->
<g id="node11" class="node">
<title>A10</title>
<polygon fill="none" stroke="#000000" points="77.0375,-122 -.0125,-122 -.0125,-86 77.0375,-86 77.0375,-122"/>
<text text-anchor="middle" x="38.5125" y="-101" font-family="Helvetica,sans-Serif" font-size="10.00" fill="#000000">PopulationGroup</text>
</g>
<!-- A2&#45;&gt;A10 -->
<g id="edge11" class="edge">
<title>A2&#45;&gt;A10</title>
<path fill="none" stroke="#000000" d="M69.8318,-180.0611C60.426,-157.2184 51.7856,-136.2347 45.9739,-122.1204"/>
<polygon fill="#000000" stroke="#000000" points="69.9326,-180.306 75.9158,-184.331 74.5016,-191.4021 68.5184,-187.3771 69.9326,-180.306"/>
<text text-anchor="middle" x="59.7844" y="-174.8595" font-family="Helvetica,sans-Serif" font-size="10.00" fill="#000000">0..1</text>
</g>
<!-- A11 -->
<g id="node12" class="node">
<title>A11</title>
<polygon fill="none" stroke="#000000" points="149.5125,-122 95.5125,-122 95.5125,-86 149.5125,-86 149.5125,-122"/>
<text text-anchor="middle" x="122.5125" y="-101" font-family="Helvetica,sans-Serif" font-size="10.00" fill="#000000">Settlement</text>
</g>
<!-- A2&#45;&gt;A11 -->
<g id="edge12" class="edge">
<title>A2&#45;&gt;A11</title>
<path fill="none" stroke="#000000" d="M122.5125,-159.8185C122.5125,-145.1121 122.5125,-132.0293 122.5125,-122.2326"/>
<polygon fill="#000000" stroke="#000000" points="122.5126,-159.929 126.5125,-165.9291 122.5125,-171.929 118.5125,-165.929 122.5126,-159.929"/>
<text text-anchor="middle" x="130.9649" y="-137.3588" font-family="Helvetica,sans-Serif" font-size="10.00" fill="#000000">1</text>
<text text-anchor="middle" x="114.0601" y="-150.8029" font-family="Helvetica,sans-Serif" font-size="10.00" fill="#000000">0..1</text>
</g>
<!-- A4 -->
<g id="node5" class="node">
<title>A4</title>
<polygon fill="none" stroke="#000000" points="242.5125,-326 188.5125,-326 188.5125,-290 242.5125,-290 242.5125,-326"/>
<text text-anchor="middle" x="215.5125" y="-305" font-family="Helvetica,sans-Serif" font-size="10.00" fill="#000000">Nation</text>
</g>
<!-- A3&#45;&gt;A4 -->
<g id="edge4" class="edge">
<title>A3&#45;&gt;A4</title>
<path fill="none" stroke="#000000" d="M211.9751,-539.6972C212.8132,-484.8013 214.5585,-370.4846 215.2356,-326.1343"/>
<polygon fill="none" stroke="#000000" points="211.9707,-539.9931 215.8786,-546.0535 211.7874,-551.9917 207.8795,-545.9313 211.9707,-539.9931"/>
<text text-anchor="middle" x="203.6128" y="-530.7386" font-family="Helvetica,sans-Serif" font-size="10.00" fill="#000000">*</text>
</g>
<!-- A5 -->
<g id="node6" class="node">
<title>A5</title>
<polygon fill="none" stroke="#000000" points="498.0235,-122 441.0015,-122 441.0015,-86 498.0235,-86 498.0235,-122"/>
<text text-anchor="middle" x="469.5125" y="-101" font-family="Helvetica,sans-Serif" font-size="10.00" fill="#000000">Government</text>
</g>
<!-- A4&#45;&gt;A5 -->
<g id="edge5" class="edge">
<title>A4&#45;&gt;A5</title>
<path fill="none" stroke="#000000" d="M247.4883,-282.3186C299.6545,-240.4214 401.7821,-158.3977 447.0222,-122.0631"/>
<polygon fill="#000000" stroke="#000000" points="247.4094,-282.382 245.2361,-289.2579 238.0533,-289.8964 240.2266,-283.0205 247.4094,-282.382"/>
<text text-anchor="middle" x="438.1826" y="-137.0036" font-family="Helvetica,sans-Serif" font-size="10.00" fill="#000000">1</text>
<text text-anchor="middle" x="246.8929" y="-268.9559" font-family="Helvetica,sans-Serif" font-size="10.00" fill="#000000">1</text>
</g>
<!-- A8 -->
<g id="node9" class="node">
<title>A8</title>
<polygon fill="none" stroke="#000000" points="242.5125,-122 188.5125,-122 188.5125,-86 242.5125,-86 242.5125,-122"/>
<text text-anchor="middle" x="215.5125" y="-101" font-family="Helvetica,sans-Serif" font-size="10.00" fill="#000000">Province</text>
</g>
<!-- A4&#45;&gt;A8 -->
<g id="edge8" class="edge">
<title>A4&#45;&gt;A8</title>
<path fill="none" stroke="#000000" d="M215.5125,-277.7297C215.5125,-234.6805 215.5125,-157.1135 215.5125,-122.0631"/>
<polygon fill="none" stroke="#000000" points="215.5126,-277.8964 219.5125,-283.8964 215.5125,-289.8964 211.5125,-283.8963 215.5126,-277.8964"/>
<text text-anchor="middle" x="207.0601" y="-268.7702" font-family="Helvetica,sans-Serif" font-size="10.00" fill="#000000">*</text>
</g>
<!-- A6 -->
<g id="node7" class="node">
<title>A6</title>
<polygon fill="none" stroke="#000000" points="342.3088,-36 272.7162,-36 272.7162,0 342.3088,0 342.3088,-36"/>
<text text-anchor="middle" x="307.5125" y="-15" font-family="Helvetica,sans-Serif" font-size="10.00" fill="#000000">NationalLeader</text>
</g>
<!-- A5&#45;&gt;A6 -->
<g id="edge6" class="edge">
<title>A5&#45;&gt;A6</title>
<path fill="none" stroke="#000000" d="M440.9231,-88.8229C413.1279,-74.0674 370.9033,-51.6519 341.4252,-36.003"/>
</g>
<!-- A13 -->
<g id="node14" class="node">
<title>A13</title>
<polygon fill="none" stroke="#000000" points="670.8097,-36 586.2153,-36 586.2153,0 670.8097,0 670.8097,-36"/>
<text text-anchor="middle" x="628.5125" y="-15" font-family="Helvetica,sans-Serif" font-size="10.00" fill="#000000">AbsoluteMonarchy</text>
</g>
<!-- A5&#45;&gt;A13 -->
<g id="edge15" class="edge">
<title>A5&#45;&gt;A13</title>
<path fill="none" stroke="#000000" d="M507.3377,-83.5411C533.9831,-69.1291 569.3362,-50.0073 594.9748,-36.1399"/>
<polygon fill="none" stroke="#000000" points="505.4369,-80.59 498.3062,-88.426 508.7672,-86.7471 505.4369,-80.59"/>
</g>
<!-- A14 -->
<g id="node15" class="node">
<title>A14</title>
<polygon fill="none" stroke="#000000" points="769.9106,-36 689.1144,-36 689.1144,0 769.9106,0 769.9106,-36"/>
<text text-anchor="middle" x="729.5125" y="-15" font-family="Helvetica,sans-Serif" font-size="10.00" fill="#000000">ElectiveMonarchy</text>
</g>
<!-- A5&#45;&gt;A14 -->
<g id="edge16" class="edge">
<title>A5&#45;&gt;A14</title>
<path fill="none" stroke="#000000" d="M507.734,-92.033C549.9156,-78.731 619.7562,-56.425 679.5125,-36 682.568,-34.9556 685.7226,-33.8603 688.8922,-32.7476"/>
<polygon fill="none" stroke="#000000" points="506.6291,-88.7115 498.1418,-95.0531 508.7313,-95.3884 506.6291,-88.7115"/>
</g>
<!-- A15 -->
<g id="node16" class="node">
<title>A15</title>
<polygon fill="none" stroke="#000000" points="466.9745,-36 360.0505,-36 360.0505,0 466.9745,0 466.9745,-36"/>
<text text-anchor="middle" x="413.5125" y="-15" font-family="Helvetica,sans-Serif" font-size="10.00" fill="#000000">ConstitutionalMonarchy</text>
</g>
<!-- A5&#45;&gt;A15 -->
<g id="edge17" class="edge">
<title>A5&#45;&gt;A15</title>
<path fill="none" stroke="#000000" d="M451.9438,-77.0195C443.2918,-63.7325 433.0894,-48.0645 425.3715,-36.2121"/>
<polygon fill="none" stroke="#000000" points="449.2466,-79.2915 457.6363,-85.7616 455.1126,-75.4717 449.2466,-79.2915"/>
</g>
<!-- A16 -->
<g id="node17" class="node">
<title>A16</title>
<polygon fill="none" stroke="#000000" points="568.1911,-36 484.8339,-36 484.8339,0 568.1911,0 568.1911,-36"/>
<text text-anchor="middle" x="526.5125" y="-15" font-family="Helvetica,sans-Serif" font-size="10.00" fill="#000000">ElectiveTheocracy</text>
</g>
<!-- A5&#45;&gt;A16 -->
<g id="edge18" class="edge">
<title>A5&#45;&gt;A16</title>
<path fill="none" stroke="#000000" d="M487.1413,-77.4021C496.0015,-64.0342 506.5105,-48.1784 514.4417,-36.2121"/>
<polygon fill="none" stroke="#000000" points="484.208,-75.4926 481.6007,-85.7616 490.0428,-79.3598 484.208,-75.4926"/>
</g>
<!-- A7 -->
<g id="node8" class="node">
<title>A7</title>
<polygon fill="none" stroke="#000000" points="314.5125,-122 260.5125,-122 260.5125,-86 314.5125,-86 314.5125,-122"/>
<text text-anchor="middle" x="287.5125" y="-101" font-family="Helvetica,sans-Serif" font-size="10.00" fill="#000000">Character</text>
</g>
<!-- A7&#45;&gt;A6 -->
<g id="edge7" class="edge">
<title>A7&#45;&gt;A6</title>
<path fill="none" stroke="#000000" d="M294.0558,-75.8639C297.0865,-62.8318 300.6003,-47.7226 303.2771,-36.2121"/>
<polygon fill="none" stroke="#000000" points="290.6102,-75.2287 291.754,-85.7616 297.4282,-76.8144 290.6102,-75.2287"/>
</g>
<!-- A9 -->
<g id="node10" class="node">
<title>A9</title>
<polygon fill="none" stroke="#000000" points="254.9699,-36 178.0551,-36 178.0551,0 254.9699,0 254.9699,-36"/>
<text text-anchor="middle" x="216.5125" y="-15" font-family="Helvetica,sans-Serif" font-size="10.00" fill="#000000">ProvincialLeader</text>
</g>
<!-- A7&#45;&gt;A9 -->
<g id="edge10" class="edge">
<title>A7&#45;&gt;A9</title>
<path fill="none" stroke="#000000" d="M265.8685,-77.7834C254.7671,-64.3365 241.5214,-48.2924 231.5481,-36.2121"/>
<polygon fill="none" stroke="#000000" points="263.3897,-80.2783 272.4552,-85.7616 268.7877,-75.8218 263.3897,-80.2783"/>
</g>
<!-- A12 -->
<g id="node13" class="node">
<title>A12</title>
<polygon fill="none" stroke="#000000" points="160.3593,-36 84.6657,-36 84.6657,0 160.3593,0 160.3593,-36"/>
<text text-anchor="middle" x="122.5125" y="-15" font-family="Helvetica,sans-Serif" font-size="10.00" fill="#000000">MunicipalLeader</text>
</g>
<!-- A7&#45;&gt;A12 -->
<g id="edge14" class="edge">
<title>A7&#45;&gt;A12</title>
<path fill="none" stroke="#000000" d="M251.2141,-85.0808C223.2501,-70.5057 184.8342,-50.4828 157.2654,-36.1136"/>
<polygon fill="none" stroke="#000000" points="249.7806,-88.2805 260.2661,-89.7988 253.016,-82.0731 249.7806,-88.2805"/>
</g>
<!-- A8&#45;&gt;A9 -->
<g id="edge9" class="edge">
<title>A8&#45;&gt;A9</title>
<path fill="none" stroke="#000000" d="M215.7246,-85.7616C215.8943,-71.1671 216.1311,-50.7996 216.3007,-36.2121"/>
</g>
<!-- A11&#45;&gt;A12 -->
<g id="edge13" class="edge">
<title>A11&#45;&gt;A12</title>
<path fill="none" stroke="#000000" d="M122.5125,-85.7616C122.5125,-71.1671 122.5125,-50.7996 122.5125,-36.2121"/>
</g>
</g>
</svg>
