<?xml version="1.0" encoding="UTF-8" standalone="no"?>
<!DOCTYPE svg PUBLIC "-//W3C//DTD SVG 1.1//EN"
 "http://www.w3.org/Graphics/SVG/1.1/DTD/svg11.dtd">
<!-- Generated by graphviz version 2.40.1 (20161225.0304)
 -->
<!-- Title: G Pages: 1 -->
<svg width="524pt" height="268pt"
 viewBox="0.00 0.00 524.29 268.00" xmlns="http://www.w3.org/2000/svg" xmlns:xlink="http://www.w3.org/1999/xlink">
<g id="graph0" class="graph" transform="scale(1 1) rotate(0) translate(4 264)">
<title>G</title>
<polygon fill="#ffffff" stroke="transparent" points="-4,4 -4,-264 520.2865,-264 520.2865,4 -4,4"/>
<!-- A0 -->
<g id="node1" class="node">
<title>A0</title>
<polygon fill="none" stroke="#000000" points="250.3431,-260 192.5549,-260 188.5549,-256 188.5549,-224 246.3431,-224 250.3431,-228 250.3431,-260"/>
<polyline fill="none" stroke="#000000" points="246.3431,-256 188.5549,-256 "/>
<polyline fill="none" stroke="#000000" points="246.3431,-256 246.3431,-224 "/>
<polyline fill="none" stroke="#000000" points="246.3431,-256 250.3431,-260 "/>
<text text-anchor="middle" x="219.449" y="-239" font-family="Helvetica,sans-Serif" font-size="10.00" fill="#000000">Pixel4X</text>
</g>
<!-- A1 -->
<g id="node2" class="node">
<title>A1</title>
<polygon fill="none" stroke="#000000" points="159.449,-188 109.449,-188 105.449,-184 105.449,-152 155.449,-152 159.449,-156 159.449,-188"/>
<polyline fill="none" stroke="#000000" points="155.449,-184 105.449,-184 "/>
<polyline fill="none" stroke="#000000" points="155.449,-184 155.449,-152 "/>
<polyline fill="none" stroke="#000000" points="155.449,-184 159.449,-188 "/>
<text text-anchor="middle" x="132.449" y="-167" font-family="Helvetica,sans-Serif" font-size="10.00" fill="#000000">Map</text>
</g>
<!-- A0&#45;&gt;A1 -->
<g id="edge1" class="edge">
<title>A0&#45;&gt;A1</title>
<path fill="none" stroke="#000000" d="M197.4952,-223.8314C184.3067,-212.9167 167.583,-199.0764 154.3957,-188.1628"/>
</g>
<!-- A2 -->
<g id="node3" class="node">
<title>A2</title>
<polygon fill="none" stroke="#000000" points="334.1755,-188 282.7225,-188 278.7225,-184 278.7225,-152 330.1755,-152 334.1755,-156 334.1755,-188"/>
<polyline fill="none" stroke="#000000" points="330.1755,-184 278.7225,-184 "/>
<polyline fill="none" stroke="#000000" points="330.1755,-184 330.1755,-152 "/>
<polyline fill="none" stroke="#000000" points="330.1755,-184 334.1755,-188 "/>
<text text-anchor="middle" x="306.449" y="-167" font-family="Helvetica,sans-Serif" font-size="10.00" fill="#000000">Game</text>
</g>
<!-- A0&#45;&gt;A2 -->
<g id="edge2" class="edge">
<title>A0&#45;&gt;A2</title>
<path fill="none" stroke="#000000" d="M241.4028,-223.8314C254.5913,-212.9167 271.315,-199.0764 284.5023,-188.1628"/>
</g>
<!-- A3 -->
<g id="node4" class="node">
<title>A3</title>
<polygon fill="none" stroke="#000000" points="81.1894,-112 9.7086,-112 5.7086,-108 5.7086,-76 77.1894,-76 81.1894,-80 81.1894,-112"/>
<polyline fill="none" stroke="#000000" points="77.1894,-108 5.7086,-108 "/>
<polyline fill="none" stroke="#000000" points="77.1894,-108 77.1894,-76 "/>
<polyline fill="none" stroke="#000000" points="77.1894,-108 81.1894,-112 "/>
<text text-anchor="middle" x="43.449" y="-97" font-family="Helvetica,sans-Serif" font-size="10.00" fill="#000000">Noise</text>
<text text-anchor="middle" x="43.449" y="-85" font-family="Helvetica,sans-Serif" font-size="10.00" fill="#000000">generation</text>
</g>
<!-- A1&#45;&gt;A3 -->
<g id="edge3" class="edge">
<title>A1&#45;&gt;A3</title>
<path fill="none" stroke="#000000" d="M111.3572,-151.9891C97.2727,-139.9618 78.8147,-124.1999 64.6978,-112.145"/>
</g>
<!-- A5 -->
<g id="node6" class="node">
<title>A5</title>
<polygon fill="none" stroke="#000000" points="165.2324,-112 103.6656,-112 99.6656,-108 99.6656,-76 161.2324,-76 165.2324,-80 165.2324,-112"/>
<polyline fill="none" stroke="#000000" points="161.2324,-108 99.6656,-108 "/>
<polyline fill="none" stroke="#000000" points="161.2324,-108 161.2324,-76 "/>
<polyline fill="none" stroke="#000000" points="161.2324,-108 165.2324,-112 "/>
<text text-anchor="middle" x="132.449" y="-91" font-family="Helvetica,sans-Serif" font-size="10.00" fill="#000000">Weather</text>
</g>
<!-- A1&#45;&gt;A5 -->
<g id="edge5" class="edge">
<title>A1&#45;&gt;A5</title>
<path fill="none" stroke="#000000" d="M132.449,-151.9891C132.449,-139.9618 132.449,-124.1999 132.449,-112.145"/>
</g>
<!-- A6 -->
<g id="node7" class="node">
<title>A6</title>
<polygon fill="none" stroke="#000000" points="259.1894,-112 187.7086,-112 183.7086,-108 183.7086,-76 255.1894,-76 259.1894,-80 259.1894,-112"/>
<polyline fill="none" stroke="#000000" points="255.1894,-108 183.7086,-108 "/>
<polyline fill="none" stroke="#000000" points="255.1894,-108 255.1894,-76 "/>
<polyline fill="none" stroke="#000000" points="255.1894,-108 259.1894,-112 "/>
<text text-anchor="middle" x="221.449" y="-97" font-family="Helvetica,sans-Serif" font-size="10.00" fill="#000000">Population</text>
<text text-anchor="middle" x="221.449" y="-85" font-family="Helvetica,sans-Serif" font-size="10.00" fill="#000000">dynamics</text>
</g>
<!-- A2&#45;&gt;A6 -->
<g id="edge6" class="edge">
<title>A2&#45;&gt;A6</title>
<path fill="none" stroke="#000000" d="M286.3052,-151.9891C272.8537,-139.9618 255.2252,-124.1999 241.7428,-112.145"/>
</g>
<!-- A7 -->
<g id="node8" class="node">
<title>A7</title>
<polygon fill="none" stroke="#000000" points="336.0541,-116 280.8439,-116 276.8439,-112 276.8439,-72 332.0541,-72 336.0541,-76 336.0541,-116"/>
<polyline fill="none" stroke="#000000" points="332.0541,-112 276.8439,-112 "/>
<polyline fill="none" stroke="#000000" points="332.0541,-112 332.0541,-72 "/>
<polyline fill="none" stroke="#000000" points="332.0541,-112 336.0541,-116 "/>
<text text-anchor="middle" x="306.449" y="-103" font-family="Helvetica,sans-Serif" font-size="10.00" fill="#000000">Armies</text>
<text text-anchor="middle" x="306.449" y="-91" font-family="Helvetica,sans-Serif" font-size="10.00" fill="#000000">and</text>
<text text-anchor="middle" x="306.449" y="-79" font-family="Helvetica,sans-Serif" font-size="10.00" fill="#000000">navies</text>
</g>
<!-- A2&#45;&gt;A7 -->
<g id="edge7" class="edge">
<title>A2&#45;&gt;A7</title>
<path fill="none" stroke="#000000" d="M306.449,-151.9891C306.449,-141.2787 306.449,-127.6066 306.449,-116.2282"/>
</g>
<!-- A8 -->
<g id="node9" class="node">
<title>A8</title>
<polygon fill="none" stroke="#000000" points="428.6128,-112 358.2852,-112 354.2852,-108 354.2852,-76 424.6128,-76 428.6128,-80 428.6128,-112"/>
<polyline fill="none" stroke="#000000" points="424.6128,-108 354.2852,-108 "/>
<polyline fill="none" stroke="#000000" points="424.6128,-108 424.6128,-76 "/>
<polyline fill="none" stroke="#000000" points="424.6128,-108 428.6128,-112 "/>
<text text-anchor="middle" x="391.449" y="-91" font-family="Helvetica,sans-Serif" font-size="10.00" fill="#000000">Diplomacy</text>
</g>
<!-- A2&#45;&gt;A8 -->
<g id="edge8" class="edge">
<title>A2&#45;&gt;A8</title>
<path fill="none" stroke="#000000" d="M326.5928,-151.9891C340.0443,-139.9618 357.6728,-124.1999 371.1552,-112.145"/>
</g>
<!-- A9 -->
<g id="node10" class="node">
<title>A9</title>
<polygon fill="none" stroke="#000000" points="516.1248,-112 450.7732,-112 446.7732,-108 446.7732,-76 512.1248,-76 516.1248,-80 516.1248,-112"/>
<polyline fill="none" stroke="#000000" points="512.1248,-108 446.7732,-108 "/>
<polyline fill="none" stroke="#000000" points="512.1248,-108 512.1248,-76 "/>
<polyline fill="none" stroke="#000000" points="512.1248,-108 516.1248,-112 "/>
<text text-anchor="middle" x="481.449" y="-91" font-family="Helvetica,sans-Serif" font-size="10.00" fill="#000000">Economy</text>
</g>
<!-- A2&#45;&gt;A9 -->
<g id="edge9" class="edge">
<title>A2&#45;&gt;A9</title>
<path fill="none" stroke="#000000" d="M334.3006,-159.1999C360.993,-148.6897 402.3006,-132.0059 437.449,-116 440.4026,-114.655 443.4488,-113.2246 446.4951,-111.7637"/>
</g>
<!-- A4 -->
<g id="node5" class="node">
<title>A4</title>
<polygon fill="none" stroke="#000000" points="80.8471,-36 .0509,-36 .0509,0 86.8471,0 86.8471,-30 80.8471,-36"/>
<polyline fill="none" stroke="#000000" points="80.8471,-36 80.8471,-30 "/>
<polyline fill="none" stroke="#000000" points="86.8471,-30 80.8471,-30 "/>
<text text-anchor="middle" x="43.449" y="-21" font-family="Helvetica,sans-Serif" font-size="10.00" fill="#000000">TODO : plate</text>
<text text-anchor="middle" x="43.449" y="-9" font-family="Helvetica,sans-Serif" font-size="10.00" fill="#000000">tectonics</text>
</g>
<!-- A3&#45;&gt;A4 -->
<g id="edge4" class="edge">
<title>A3&#45;&gt;A4</title>
<path fill="none" stroke="#000000" stroke-dasharray="5,2" d="M43.449,-75.9891C43.449,-63.9618 43.449,-48.1999 43.449,-36.145"/>
</g>
</g>
</svg>
