<?xml version="1.0" encoding="UTF-8" standalone="no"?>
<!DOCTYPE svg PUBLIC "-//W3C//DTD SVG 1.1//EN"
 "http://www.w3.org/Graphics/SVG/1.1/DTD/svg11.dtd">
<!-- Generated by graphviz version 2.40.1 (20161225.0304)
 -->
<!-- Title: G Pages: 1 -->
<svg width="284pt" height="560pt"
 viewBox="0.00 0.00 284.03 560.00" xmlns="http://www.w3.org/2000/svg" xmlns:xlink="http://www.w3.org/1999/xlink">
<g id="graph0" class="graph" transform="scale(1 1) rotate(0) translate(4 556)">
<title>G</title>
<polygon fill="#ffffff" stroke="transparent" points="-4,4 -4,-556 280.0328,-556 280.0328,4 -4,4"/>
<!-- A0 -->
<g id="node1" class="node">
<title>A0</title>
<polygon fill="#ffffff" stroke="#000000" points="154.9495,-552 100.9495,-552 100.9495,-516 154.9495,-516 154.9495,-552"/>
<text text-anchor="middle" x="127.9495" y="-531" font-family="Helvetica,sans-Serif" font-size="10.00" fill="#000000">noise</text>
</g>
<!-- A1 -->
<g id="node2" class="node">
<title>A1</title>
<polygon fill="none" stroke="#000000" points="172.5666,-466 83.3324,-466 83.3324,-430 172.5666,-430 172.5666,-466"/>
<text text-anchor="middle" x="127.9495" y="-445" font-family="Helvetica,sans-Serif" font-size="10.00" fill="#000000">wind direction</text>
</g>
<!-- A0&#45;&gt;A1 -->
<g id="edge1" class="edge">
<title>A0&#45;&gt;A1</title>
<path fill="none" stroke="#000000" d="M127.9495,-515.7616C127.9495,-504.3597 127.9495,-489.4342 127.9495,-476.494"/>
<polygon fill="#000000" stroke="#000000" points="127.9495,-466.2121 132.4496,-476.2121 127.9495,-471.2121 127.9496,-476.2121 127.9496,-476.2121 127.9496,-476.2121 127.9495,-471.2121 123.4496,-476.2121 127.9495,-466.2121 127.9495,-466.2121"/>
</g>
<!-- A2 -->
<g id="node3" class="node">
<title>A2</title>
<polygon fill="none" stroke="#000000" points="229.5118,-380 156.3872,-380 156.3872,-344 229.5118,-344 229.5118,-380"/>
<text text-anchor="middle" x="192.9495" y="-359" font-family="Helvetica,sans-Serif" font-size="10.00" fill="#000000">wind force</text>
</g>
<!-- A1&#45;&gt;A2 -->
<g id="edge2" class="edge">
<title>A1&#45;&gt;A2</title>
<path fill="none" stroke="#000000" d="M141.7343,-429.7616C150.783,-417.7896 162.7677,-401.9328 172.8686,-388.5685"/>
<polygon fill="#000000" stroke="#000000" points="179.1845,-380.2121 176.7448,-390.9032 176.1697,-384.2009 173.1549,-388.1898 173.1549,-388.1898 173.1549,-388.1898 176.1697,-384.2009 169.5649,-385.4764 179.1845,-380.2121 179.1845,-380.2121"/>
</g>
<!-- A4 -->
<g id="node5" class="node">
<title>A4</title>
<polygon fill="none" stroke="#000000" points="81.8486,-294 .0504,-294 .0504,-258 81.8486,-258 81.8486,-294"/>
<text text-anchor="middle" x="40.9495" y="-273" font-family="Helvetica,sans-Serif" font-size="10.00" fill="#000000">temperature</text>
</g>
<!-- A1&#45;&gt;A4 -->
<g id="edge6" class="edge">
<title>A1&#45;&gt;A4</title>
<path fill="none" stroke="#000000" d="M118.8034,-429.9181C103.5303,-399.7229 72.7445,-338.859 54.8006,-303.3838"/>
<polygon fill="#000000" stroke="#000000" points="50.1036,-294.0977 58.6328,-300.99 52.3604,-298.5595 54.6172,-303.0212 54.6172,-303.0212 54.6172,-303.0212 52.3604,-298.5595 50.6017,-305.0523 50.1036,-294.0977 50.1036,-294.0977"/>
</g>
<!-- A5 -->
<g id="node6" class="node">
<title>A5</title>
<polygon fill="none" stroke="#000000" points="185.5736,-208 116.3254,-208 116.3254,-172 185.5736,-172 185.5736,-208"/>
<text text-anchor="middle" x="150.9495" y="-187" font-family="Helvetica,sans-Serif" font-size="10.00" fill="#000000">coverage</text>
</g>
<!-- A1&#45;&gt;A5 -->
<g id="edge17" class="edge">
<title>A1&#45;&gt;A5</title>
<path fill="none" stroke="#000000" d="M129.5668,-429.8579C133.5176,-385.5401 143.6828,-271.5129 148.4331,-218.2275"/>
<polygon fill="#000000" stroke="#000000" points="149.334,-208.122 152.9282,-218.4821 148.89,-213.1023 148.4459,-218.0825 148.4459,-218.0825 148.4459,-218.0825 148.89,-213.1023 143.9637,-217.6829 149.334,-208.122 149.334,-208.122"/>
</g>
<!-- A8 -->
<g id="node9" class="node">
<title>A8</title>
<polygon fill="none" stroke="#000000" points="183.6729,-122 118.2261,-122 118.2261,-86 183.6729,-86 183.6729,-122"/>
<text text-anchor="middle" x="150.9495" y="-101" font-family="Helvetica,sans-Serif" font-size="10.00" fill="#000000">humidity</text>
</g>
<!-- A1&#45;&gt;A8 -->
<g id="edge11" class="edge">
<title>A1&#45;&gt;A8</title>
<path fill="none" stroke="#000000" d="M171.2099,-429.8668C193.9978,-418.4407 220.8856,-401.7192 238.9495,-380 265.1281,-348.5241 264.4914,-334.2545 271.9495,-294 282.1615,-238.8816 273.3043,-217.0531 239.9495,-172 227.0422,-154.5659 208.484,-139.4136 191.6506,-127.8651"/>
<polygon fill="#000000" stroke="#000000" points="183.0441,-122.1614 193.8657,-123.9346 187.2119,-124.9235 191.3798,-127.6857 191.3798,-127.6857 191.3798,-127.6857 187.2119,-124.9235 188.8939,-131.4367 183.0441,-122.1614 183.0441,-122.1614"/>
</g>
<!-- A2&#45;&gt;A4 -->
<g id="edge5" class="edge">
<title>A2&#45;&gt;A4</title>
<path fill="none" stroke="#000000" d="M161.0853,-343.9716C137.9808,-330.8993 106.5482,-313.115 81.6299,-299.0165"/>
<polygon fill="#000000" stroke="#000000" points="72.7717,-294.0047 83.6912,-295.0125 77.1235,-296.4669 81.4752,-298.9291 81.4752,-298.9291 81.4752,-298.9291 77.1235,-296.4669 79.2593,-302.8457 72.7717,-294.0047 72.7717,-294.0047"/>
</g>
<!-- A2&#45;&gt;A5 -->
<g id="edge18" class="edge">
<title>A2&#45;&gt;A5</title>
<path fill="none" stroke="#000000" d="M188.5341,-343.9181C181.1924,-313.852 166.4257,-253.3787 157.7476,-217.84"/>
<polygon fill="#000000" stroke="#000000" points="155.3687,-208.0977 162.1125,-216.7448 156.5548,-212.955 157.741,-217.8123 157.741,-217.8123 157.741,-217.8123 156.5548,-212.955 153.3694,-218.8798 155.3687,-208.0977 155.3687,-208.0977"/>
</g>
<!-- A2&#45;&gt;A8 -->
<g id="edge10" class="edge">
<title>A2&#45;&gt;A8</title>
<path fill="none" stroke="#000000" d="M217.5706,-343.8722C232.0369,-331.6144 249.0008,-314.0433 256.9495,-294 262.8478,-279.1269 260.6255,-273.572 256.9495,-258 247.1313,-216.4094 238.2706,-207.1377 213.9495,-172 203.4063,-156.7678 189.6071,-141.4854 177.6116,-129.2777"/>
<polygon fill="#000000" stroke="#000000" points="170.421,-122.1019 180.6781,-125.9805 173.9602,-125.6338 177.4994,-129.1658 177.4994,-129.1658 177.4994,-129.1658 173.9602,-125.6338 174.3207,-132.351 170.421,-122.1019 170.421,-122.1019"/>
</g>
<!-- A3 -->
<g id="node4" class="node">
<title>A3</title>
<polygon fill="#ffffff" stroke="#000000" points="245.684,-466 190.215,-466 190.215,-430 245.684,-430 245.684,-466"/>
<text text-anchor="middle" x="217.9495" y="-445" font-family="Helvetica,sans-Serif" font-size="10.00" fill="#000000">height</text>
</g>
<!-- A3&#45;&gt;A2 -->
<g id="edge3" class="edge">
<title>A3&#45;&gt;A2</title>
<path fill="none" stroke="#000000" d="M212.6476,-429.7616C209.3,-418.2456 204.9074,-403.1353 201.12,-390.1064"/>
<polygon fill="#000000" stroke="#000000" points="198.2437,-380.2121 205.3563,-388.5584 199.6395,-385.0133 201.0352,-389.8146 201.0352,-389.8146 201.0352,-389.8146 199.6395,-385.0133 196.7141,-391.0708 198.2437,-380.2121 198.2437,-380.2121"/>
</g>
<!-- A4&#45;&gt;A4 -->
<g id="edge4" class="edge">
<title>A4&#45;&gt;A4</title>
<path fill="none" stroke="#000000" d="M81.9975,-291.9036C92.2419,-290.7914 99.899,-285.4902 99.899,-276 99.899,-269.9203 96.7565,-265.5598 91.8045,-262.9185"/>
<polygon fill="#000000" stroke="#000000" points="81.9975,-260.0964 92.852,-258.5374 86.8025,-261.4792 91.6075,-262.8619 91.6075,-262.8619 91.6075,-262.8619 86.8025,-261.4792 90.363,-267.1864 81.9975,-260.0964 81.9975,-260.0964"/>
</g>
<!-- A4&#45;&gt;A5 -->
<g id="edge19" class="edge">
<title>A4&#45;&gt;A5</title>
<path fill="none" stroke="#000000" d="M58.6417,-257.7616C73.5409,-245.1055 95.1115,-228.1079 113.7166,-214.3031"/>
<polygon fill="#000000" stroke="#000000" points="122.0216,-208.2121 116.6192,-217.7549 117.9898,-211.1691 113.9579,-214.1262 113.9579,-214.1262 113.9579,-214.1262 117.9898,-211.1691 111.2965,-210.4975 122.0216,-208.2121 122.0216,-208.2121"/>
</g>
<!-- A7 -->
<g id="node8" class="node">
<title>A7</title>
<polygon fill="none" stroke="#000000" points="116.9495,-36 62.9495,-36 62.9495,0 116.9495,0 116.9495,-36"/>
<text text-anchor="middle" x="89.9495" y="-15" font-family="Helvetica,sans-Serif" font-size="10.00" fill="#000000">rain</text>
</g>
<!-- A4&#45;&gt;A7 -->
<g id="edge23" class="edge">
<title>A4&#45;&gt;A7</title>
<path fill="none" stroke="#000000" d="M40.7277,-257.8579C45.3084,-213.4476 66.7973,-99.0365 80.2632,-45.8946"/>
<polygon fill="#000000" stroke="#000000" points="82.8421,-36.122 84.6415,-46.9392 81.5663,-40.9565 80.2905,-45.791 80.2905,-45.791 80.2905,-45.791 81.5663,-40.9565 75.9394,-44.6428 82.8421,-36.122 82.8421,-36.122"/>
</g>
<!-- A4&#45;&gt;A8 -->
<g id="edge13" class="edge">
<title>A4&#45;&gt;A8</title>
<path fill="none" stroke="#000000" d="M52.3476,-257.9327C65.4656,-237.1642 87.6813,-202.0681 106.9495,-172 115.6796,-158.3767 125.4514,-143.2615 133.5646,-130.7482"/>
<polygon fill="#000000" stroke="#000000" points="139.1405,-122.1549 137.4722,-132.9932 136.4188,-126.3493 133.6972,-130.5437 133.6972,-130.5437 133.6972,-130.5437 136.4188,-126.3493 129.9223,-128.0943 139.1405,-122.1549 139.1405,-122.1549"/>
</g>
<!-- A5&#45;&gt;A4 -->
<g id="edge7" class="edge">
<title>A5&#45;&gt;A4</title>
<path fill="none" stroke="#000000" d="M133.5323,-208.0047C118.5067,-220.7847 96.5594,-238.0772 77.7402,-252.0248"/>
<polygon fill="#000000" stroke="#000000" points="69.6236,-257.9716 75.0306,-248.4314 73.6569,-255.0165 77.6902,-252.0614 77.6902,-252.0614 77.6902,-252.0614 73.6569,-255.0165 80.3498,-255.6914 69.6236,-257.9716 69.6236,-257.9716"/>
</g>
<!-- A5&#45;&gt;A7 -->
<g id="edge24" class="edge">
<title>A5&#45;&gt;A7</title>
<path fill="none" stroke="#000000" d="M137.1875,-171.9363C127.8275,-158.7696 115.9199,-140.1326 108.9495,-122 99.4845,-97.3779 94.6585,-67.6237 92.246,-46.26"/>
<polygon fill="#000000" stroke="#000000" points="91.2192,-36.2155 96.7129,-45.7059 91.7277,-41.1895 92.2363,-46.1636 92.2363,-46.1636 92.2363,-46.1636 91.7277,-41.1895 87.7596,-46.6213 91.2192,-36.2155 91.2192,-36.2155"/>
</g>
<!-- A5&#45;&gt;A8 -->
<g id="edge12" class="edge">
<title>A5&#45;&gt;A8</title>
<path fill="none" stroke="#000000" d="M145.3135,-171.7616C144.1524,-160.3597 143.8989,-145.4342 144.5532,-132.494"/>
<polygon fill="#000000" stroke="#000000" points="145.3162,-122.2121 149.0637,-132.5178 144.9461,-127.1984 144.576,-132.1847 144.576,-132.1847 144.576,-132.1847 144.9461,-127.1984 140.0884,-131.8516 145.3162,-122.2121 145.3162,-122.2121"/>
</g>
<!-- A6 -->
<g id="node7" class="node">
<title>A6</title>
<polygon fill="#ffffff" stroke="#000000" points="62.1819,-380 1.7171,-380 1.7171,-344 62.1819,-344 62.1819,-380"/>
<text text-anchor="middle" x="31.9495" y="-359" font-family="Helvetica,sans-Serif" font-size="10.00" fill="#000000">altitude</text>
</g>
<!-- A6&#45;&gt;A4 -->
<g id="edge8" class="edge">
<title>A6&#45;&gt;A4</title>
<path fill="none" stroke="#000000" d="M33.8582,-343.7616C35.0514,-332.3597 36.6134,-317.4342 37.9676,-304.494"/>
<polygon fill="#000000" stroke="#000000" points="39.0436,-294.2121 42.4782,-304.6262 38.5231,-299.1849 38.0027,-304.1578 38.0027,-304.1578 38.0027,-304.1578 38.5231,-299.1849 33.5271,-303.6894 39.0436,-294.2121 39.0436,-294.2121"/>
</g>
<!-- A7&#45;&gt;A4 -->
<g id="edge9" class="edge">
<title>A7&#45;&gt;A4</title>
<path fill="none" stroke="#000000" d="M90.1734,-36.122C85.5977,-80.5113 64.1102,-194.9211 50.6419,-248.0814"/>
<polygon fill="#000000" stroke="#000000" points="48.0625,-257.8579 46.2625,-247.0408 49.338,-253.0234 50.6136,-248.1888 50.6136,-248.1888 50.6136,-248.1888 49.338,-253.0234 54.9647,-249.3368 48.0625,-257.8579 48.0625,-257.8579"/>
</g>
<!-- A7&#45;&gt;A8 -->
<g id="edge15" class="edge">
<title>A7&#45;&gt;A8</title>
<path fill="none" stroke="#000000" d="M108.5007,-36.2121C118.1166,-48.0645 129.4573,-63.7325 138.1273,-77.0195"/>
<polygon fill="#000000" stroke="#000000" points="143.649,-85.7616 134.5041,-79.7099 140.9789,-81.5342 138.3088,-77.3068 138.3088,-77.3068 138.3088,-77.3068 140.9789,-81.5342 142.1134,-74.9038 143.649,-85.7616 143.649,-85.7616"/>
</g>
<!-- A8&#45;&gt;A5 -->
<g id="edge20" class="edge">
<title>A8&#45;&gt;A5</title>
<path fill="none" stroke="#000000" d="M156.5828,-122.2121C157.7453,-133.6086 158.0002,-148.5329 157.3473,-161.4762"/>
<polygon fill="#000000" stroke="#000000" points="156.5855,-171.7616 152.8366,-161.4565 156.9549,-166.7753 157.3243,-161.7889 157.3243,-161.7889 157.3243,-161.7889 156.9549,-166.7753 161.812,-162.1214 156.5855,-171.7616 156.5855,-171.7616"/>
</g>
<!-- A8&#45;&gt;A7 -->
<g id="edge22" class="edge">
<title>A8&#45;&gt;A7</title>
<path fill="none" stroke="#000000" d="M132.377,-85.7616C122.7585,-73.9036 111.4185,-58.2345 102.7525,-44.951"/>
<polygon fill="#000000" stroke="#000000" points="97.2341,-36.2121 106.3783,-42.2647 99.9037,-40.4398 102.5734,-44.6674 102.5734,-44.6674 102.5734,-44.6674 99.9037,-40.4398 98.7685,-47.0701 97.2341,-36.2121 97.2341,-36.2121"/>
</g>
<!-- A8&#45;&gt;A8 -->
<g id="edge14" class="edge">
<title>A8&#45;&gt;A8</title>
<path fill="none" stroke="#000000" d="M183.5638,-120.1093C193.6447,-119.7838 201.561,-114.4141 201.561,-104 201.561,-97.3285 198.3122,-92.7272 193.3267,-90.196"/>
<polygon fill="#000000" stroke="#000000" points="183.5638,-87.8907 194.3304,-85.8094 188.43,-89.0398 193.2962,-90.1889 193.2962,-90.1889 193.2962,-90.1889 188.43,-89.0398 192.262,-94.5685 183.5638,-87.8907 183.5638,-87.8907"/>
</g>
<!-- A9 -->
<g id="node10" class="node">
<title>A9</title>
<polygon fill="#ffffff" stroke="#000000" points="247.9495,-294 193.9495,-294 193.9495,-258 247.9495,-258 247.9495,-294"/>
<text text-anchor="middle" x="220.9495" y="-273" font-family="Helvetica,sans-Serif" font-size="10.00" fill="#000000">water</text>
</g>
<!-- A9&#45;&gt;A5 -->
<g id="edge21" class="edge">
<title>A9&#45;&gt;A5</title>
<path fill="none" stroke="#000000" d="M206.1043,-257.7616C196.2668,-245.6756 183.2068,-229.6304 172.2648,-216.1874"/>
<polygon fill="#000000" stroke="#000000" points="165.7733,-208.2121 175.5761,-213.127 168.9297,-212.0899 172.0861,-215.9677 172.0861,-215.9677 172.0861,-215.9677 168.9297,-212.0899 168.596,-218.8085 165.7733,-208.2121 165.7733,-208.2121"/>
</g>
<!-- A9&#45;&gt;A8 -->
<g id="edge16" class="edge">
<title>A9&#45;&gt;A8</title>
<path fill="none" stroke="#000000" d="M218.2594,-257.7484C214.7082,-236.5065 207.4025,-200.68 194.9495,-172 188.6403,-157.4696 179.3631,-142.5591 170.952,-130.4171"/>
<polygon fill="#000000" stroke="#000000" points="165.0353,-122.1101 174.5021,-127.6446 167.936,-126.1827 170.8368,-130.2553 170.8368,-130.2553 170.8368,-130.2553 167.936,-126.1827 167.1714,-132.8659 165.0353,-122.1101 165.0353,-122.1101"/>
</g>
</g>
</svg>
